<svg id="add-user" xmlns="http://www.w3.org/2000/svg" width="40.225" height="40.225" viewBox="0 0 40.225 40.225">
  <g id="Group_10" data-name="Group 10" transform="translate(0)">
    <g id="Group_9" data-name="Group 9">
      <path id="Path_30" data-name="Path 30" d="M28.878,20.184a20.443,20.443,0,0,0-2.364-.949,10.685,10.685,0,1,0-12.794.007A20.437,20.437,0,0,0,.1,34.468a4.774,4.774,0,0,0,4.666,5.757H24.119a1.571,1.571,0,0,0,0-3.143H4.769a1.6,1.6,0,0,1-1.257-.6,1.642,1.642,0,0,1-.333-1.376A17.36,17.36,0,0,1,19.7,21.361q.207.008.417.008t.421-.008a17.116,17.116,0,0,1,7,1.661,1.571,1.571,0,0,0,1.349-2.838ZM20.5,18.217q-.191,0-.383,0t-.38,0a7.542,7.542,0,1,1,.763,0Z" transform="translate(0)" fill="#fff"/>
    </g>
  </g>
  <g id="Group_12" data-name="Group 12" transform="translate(25.298 25.298)">
    <g id="Group_11" data-name="Group 11">
      <path id="Path_31" data-name="Path 31" d="M335.356,327.892h-4.321v-4.321a1.571,1.571,0,1,0-3.143,0v4.321h-4.321a1.571,1.571,0,1,0,0,3.143h4.321v4.321a1.571,1.571,0,1,0,3.143,0v-4.321h4.321a1.571,1.571,0,1,0,0-3.143Z" transform="translate(-322 -322)" fill="#fff"/>
    </g>
  </g>
</svg>
