<svg id="alert" xmlns="http://www.w3.org/2000/svg" width="66.373" height="66.373" viewBox="0 0 66.373 66.373">
  <g id="Group_367" data-name="Group 367">
    <g id="Group_366" data-name="Group 366">
      <path id="Path_190" data-name="Path 190" d="M33.187,0A33.187,33.187,0,1,0,66.373,33.187,33.168,33.168,0,0,0,33.187,0Zm0,61.188a28,28,0,1,1,28-28A27.985,27.985,0,0,1,33.187,61.188Z" fill="#e2180c"/>
    </g>
  </g>
  <g id="Group_369" data-name="Group 369" transform="translate(30.594 16.707)">
    <g id="Group_368" data-name="Group 368">
      <path id="Path_191" data-name="Path 191" d="M238.593,128.877A2.593,2.593,0,0,0,236,131.47v16.7a2.593,2.593,0,0,0,5.185,0v-16.7A2.593,2.593,0,0,0,238.593,128.877Z" transform="translate(-236 -128.877)" fill="#e2180c"/>
    </g>
  </g>
  <g id="Group_371" data-name="Group 371" transform="translate(29.686 41.763)">
    <g id="Group_370" data-name="Group 370">
      <circle id="Ellipse_1" data-name="Ellipse 1" cx="3.5" cy="3.5" r="3.5" fill="#e2180c"/>
    </g>
  </g>
</svg>
