<svg xmlns="http://www.w3.org/2000/svg" width="40.868" height="41.884" viewBox="0 0 40.868 41.884">
  <path id="Path_27" data-name="Path 27" d="M38.284,0H13.969a2.587,2.587,0,0,0-2.584,2.584V10.33h-.808a2.319,2.319,0,0,1-.739-.121l-.591-.2a1.091,1.091,0,0,1-.442-.28L8.8,9.724a1.1,1.1,0,0,1-.3-.76V7.842l.352-.215A2.128,2.128,0,0,0,9.865,5.82V2.344A2.346,2.346,0,0,0,7.523,0H5.383A2.346,2.346,0,0,0,3.041,2.344V5.82A2.128,2.128,0,0,0,4.056,7.627l.352.215V8.964a1.11,1.11,0,0,1-.352.81,1.092,1.092,0,0,1-.4.236l-1.046.352A3.837,3.837,0,0,0,0,14v8.431a3.082,3.082,0,0,0,2.463,3.015v2.61a.614.614,0,0,0,1.227,0V23.027H9.038V38.519H6.978v-13a.614.614,0,0,0-1.227,0v13H3.69V30.485a.614.614,0,0,0-1.227,0v8.647a.613.613,0,0,0,.3.525,2.244,2.244,0,0,0-.3,1.118v.346a.762.762,0,0,0,.761.761H6.216a.751.751,0,0,0,.148-.015.751.751,0,0,0,.148.015H9.5a.762.762,0,0,0,.761-.761v-.346a2.241,2.241,0,0,0-.3-1.118.612.612,0,0,0,.3-.525V22.42s0,0,0-.006V14.6a.213.213,0,0,1,.212-.213h6.949A3.117,3.117,0,0,0,20.54,11.27v-.245a.7.7,0,0,0-.693-.694H18.732l.878-.821a1.724,1.724,0,0,0,1.906-.249l1.614.867a1.737,1.737,0,1,0,3.223-.641l1.436-1.76a1.725,1.725,0,0,0,1.224-.044l1.172,1.237A1.737,1.737,0,1,0,33.244,8.8l2.2-2.726a1.743,1.743,0,1,0-.95-.777l-2.2,2.732a1.729,1.729,0,0,0-1.214.048L29.9,6.837a1.737,1.737,0,1,0-3.064.113L25.4,8.709a1.724,1.724,0,0,0-1.692.337L22.1,8.18a1.777,1.777,0,0,0,.017-.228,1.738,1.738,0,1,0-3.343.661L16.936,10.33H12.613V2.584a1.358,1.358,0,0,1,1.356-1.357H38.284a1.359,1.359,0,0,1,1.357,1.357V22.926a1.359,1.359,0,0,1-1.357,1.357H13.969a1.358,1.358,0,0,1-1.356-1.357V16.28a.614.614,0,1,0-1.227,0v6.646a2.587,2.587,0,0,0,2.583,2.584h2.872a2.331,2.331,0,0,0-.326,1.191v3.476a2.129,2.129,0,0,0,1.015,1.807l.352.215v1.122a1.109,1.109,0,0,1-.352.81,1.089,1.089,0,0,1-.4.236l-1.046.352a3.837,3.837,0,0,0-2.613,3.64v2.91a.614.614,0,1,0,1.227,0v-2.91a2.61,2.61,0,0,1,1.777-2.477l1.046-.352a2.332,2.332,0,0,0,.543-.266,6,6,0,0,0,1,.21l-1.074,3.8a.613.613,0,0,0,.134.576l1.28,1.427a.613.613,0,0,0,.441.2h.015a.614.614,0,0,0,.436-.181L21.71,39.87a.614.614,0,0,0,.15-.615l-1.189-3.8a6.016,6.016,0,0,0,1.035-.246,2.335,2.335,0,0,0,.624.321l1.045.352a2.611,2.611,0,0,1,1.777,2.477v2.91a.614.614,0,0,0,1.227,0v-2.91a2.6,2.6,0,0,1,.491-1.526.614.614,0,0,0-1-.715c-.037.052-.073.1-.107.158a3.83,3.83,0,0,0-2-1.557l-1.047-.352a1.076,1.076,0,0,1-.442-.281,1.1,1.1,0,0,1-.306-.765V32.2l.352-.215h0a2.128,2.128,0,0,0,1.014-1.807V26.7a2.333,2.333,0,0,0-.326-1.191h5.507a2.333,2.333,0,0,0-.326,1.191v3.476a2.129,2.129,0,0,0,1.014,1.807l.352.215v1.122a1.111,1.111,0,0,1-.351.81,1.094,1.094,0,0,1-.4.236l-.558.188a.614.614,0,1,0,.392,1.163l.557-.188a2.324,2.324,0,0,0,.544-.265,6,6,0,0,0,1,.21l-1.074,3.8a.614.614,0,0,0,.134.577l1.28,1.427a.613.613,0,0,0,.441.2h.015a.614.614,0,0,0,.436-.181l1.415-1.427a.613.613,0,0,0,.15-.615l-1.189-3.8a6.057,6.057,0,0,0,1.035-.246,2.322,2.322,0,0,0,.624.321l1.044.352a2.579,2.579,0,0,1,.991.607,2.614,2.614,0,0,1,.787,1.87v2.91a.614.614,0,1,0,1.227,0v-2.91a3.828,3.828,0,0,0-.241-1.339,3.868,3.868,0,0,0-.915-1.408,3.8,3.8,0,0,0-1.458-.893L34.4,34.366a1.085,1.085,0,0,1-.443-.281,1.1,1.1,0,0,1-.305-.764V32.2L34,31.984a2.128,2.128,0,0,0,1.014-1.807V26.7a2.331,2.331,0,0,0-.326-1.191h3.593a2.587,2.587,0,0,0,2.584-2.584V2.584A2.587,2.587,0,0,0,38.284,0ZM36,3.915a.51.51,0,1,1-.322.906l-.005-.005h0a.51.51,0,0,1,.329-.9ZM32.258,9.676a.51.51,0,1,1-.511-.51A.511.511,0,0,1,32.258,9.676ZM28.341,5.57a.51.51,0,1,1-.321.907h0l0,0a.51.51,0,0,1,.326-.9Zm-3.49,4.275a.512.512,0,1,1-.451.272l0,0,0,0A.511.511,0,0,1,24.851,9.845Zm-4.475-2.4a.51.51,0,0,1,.452.747l0,0,0,.006A.509.509,0,0,1,20,8.3h0a.51.51,0,0,1,.373-.858ZM6.416,13.656l.716,3.376-.724.73-.642-.716Zm.013-3.722a4.8,4.8,0,0,1-.972-.079,2.337,2.337,0,0,0,.178-.891v-.4a2.093,2.093,0,0,0,1.636,0v.4a2.34,2.34,0,0,0,.157.842,4.818,4.818,0,0,1-1,.128ZM5.383,1.227H7.523A1.117,1.117,0,0,1,8.638,2.344v.773L5.728,2.18a.614.614,0,0,0-.472.04l-.987.515V2.344A1.117,1.117,0,0,1,5.383,1.227ZM4.268,4.12,5.6,3.427l3.041.979V5.82a.894.894,0,0,1-.426.759h0l-1.3.792a.882.882,0,0,1-.921,0l-1.3-.792a.894.894,0,0,1-.426-.76ZM3.7,40.656a1.03,1.03,0,0,1,2.046,0Zm3.287,0a1.03,1.03,0,0,1,2.046,0Zm10.442-27.5H10.477A1.441,1.441,0,0,0,9.038,14.6v7.2H3.69V14.9a.614.614,0,0,0-1.227,0v9.28a1.853,1.853,0,0,1-1.236-1.745V14A2.611,2.611,0,0,1,3,11.525l1.046-.352a2.319,2.319,0,0,0,.543-.265,6.055,6.055,0,0,0,1.059.216L4.5,17.113a.614.614,0,0,0,.146.525l1.28,1.427a.614.614,0,0,0,.441.2h.015a.614.614,0,0,0,.436-.182l1.415-1.427A.614.614,0,0,0,8.4,17.1L7.129,11.107a6.016,6.016,0,0,0,1.1-.256,2.318,2.318,0,0,0,.624.321l.59.2a3.536,3.536,0,0,0,1.131.185h8.714a1.89,1.89,0,0,1-1.866,1.6Zm4.685,14.318-2.91-.937a.614.614,0,0,0-.472.04l-.987.515V26.7a1.117,1.117,0,0,1,1.115-1.117H21A1.117,1.117,0,0,1,22.111,26.7ZM20.745,32.92v.4a2.337,2.337,0,0,0,.157.842,4.746,4.746,0,0,1-1.971.049,2.331,2.331,0,0,0,.178-.891v-.4a2.093,2.093,0,0,0,1.636,0Zm-.863,7.051-.62-.691.627-2.216.69,2.2Zm1.8-9.034-1.3.792a.882.882,0,0,1-.921,0l-1.3-.792a.894.894,0,0,1-.426-.759v-1.7l1.328-.693,3.041.979v1.415a.894.894,0,0,1-.426.759Zm12.1-3.463-2.91-.937a.614.614,0,0,0-.472.04l-.987.515V26.7a1.117,1.117,0,0,1,1.115-1.117h2.139A1.117,1.117,0,0,1,33.79,26.7Zm-1.366,5.445v.4a2.342,2.342,0,0,0,.156.842,4.748,4.748,0,0,1-1.971.049,2.337,2.337,0,0,0,.178-.891v-.4a2.094,2.094,0,0,0,1.637,0Zm-.864,7.052-.62-.691.627-2.216.69,2.2Zm1.8-9.034-1.3.792a.882.882,0,0,1-.921,0l-1.3-.792a.894.894,0,0,1-.426-.759v-1.7l1.328-.693,3.041.979v1.415a.893.893,0,0,1-.426.759Zm0,0" transform="translate(0 0)" fill="#7b7b7b"/>
</svg>
