<svg xmlns="http://www.w3.org/2000/svg" width="47.148" height="60.09" viewBox="0 0 47.148 60.09">
  <g id="user_3_" data-name="user (3)" transform="translate(-41.925)">
    <path id="Path_183" data-name="Path 183" d="M89.073,213.615v.02a35.108,35.108,0,0,1-47.148,0v-.02a23.573,23.573,0,0,1,13.454-21.3A14.345,14.345,0,0,0,65.5,196.908a14.348,14.348,0,0,0,10.123-4.589A23.57,23.57,0,0,1,89.073,213.615Z" transform="translate(0 -162.638)" fill="#00a5a5"/>
    <path id="Path_184" data-name="Path 184" d="M123.225,0a13.039,13.039,0,0,1,13.04,13.038c0,7.2-5.839,17.053-13.04,17.053s-13.04-9.85-13.04-17.053A13.039,13.039,0,0,1,123.225,0Z" transform="translate(-57.725 0)" fill="#edbc94"/>
  </g>
</svg>
