<svg id="Group_8" data-name="Group 8" xmlns="http://www.w3.org/2000/svg" width="39.838" height="38.356" viewBox="0 0 39.838 38.356">
  <g id="Group_7" data-name="Group 7" transform="translate(0 0)">
    <path id="Path_16" data-name="Path 16" d="M50.139,34.428a.942.942,0,0,0-1.235.01l-2.573,2.3v-.3a.639.639,0,1,0-1.278,0v1.447l-1.066.954a.639.639,0,0,0,.853.953l4.688-4.2,4.688,4.2a.639.639,0,1,0,.853-.953Z" transform="translate(-40.574 -31.644)" fill="#7b7b7b"/>
    <path id="Path_17" data-name="Path 17" d="M69.1,119.52a.639.639,0,0,0-.639.639v4.475H62.065v-4.475a.639.639,0,0,0-1.278,0v4.881a.884.884,0,0,0,.895.873h7.16a.886.886,0,0,0,.895-.875v-4.879A.639.639,0,0,0,69.1,119.52Z" transform="translate(-56.308 -110.57)" fill="#7b7b7b"/>
    <path id="Path_18" data-name="Path 18" d="M65.262,221.92a4.475,4.475,0,1,0,4.475,4.475A4.475,4.475,0,0,0,65.262,221.92Zm-3.2,4.475a3.2,3.2,0,0,1,2.557-3.132v2.77l-2.365,1.418A3.152,3.152,0,0,1,62.065,226.395Zm.851,2.152,2.247-1.348,1.859,1.859A3.166,3.166,0,0,1,62.916,228.547Zm5.01-.393L65.9,226.13v-2.868a3.19,3.19,0,0,1,2.025,4.892Z" transform="translate(-56.308 -205.299)" fill="#7b7b7b"/>
    <path id="Path_19" data-name="Path 19" d="M256.608,43.137V40.948A1.009,1.009,0,0,0,255.6,39.94H253.78a1.009,1.009,0,0,0-1.008,1.008v2.188h-1.279V39.128a1.107,1.107,0,0,0-1.106-1.106h-1.624a1.107,1.107,0,0,0-1.106,1.106v4.008H246.38V36.1a1.279,1.279,0,0,0-1.279-1.279h-1.279a1.279,1.279,0,0,0-1.279,1.279v7.032H241.9a.639.639,0,0,1-.639-.639V34.826a.639.639,0,0,0-1.278,0V42.5a1.918,1.918,0,0,0,1.918,1.918h14.7a.639.639,0,1,0,0-1.279Zm-11.507,0h-1.279V36.1H245.1Zm5.114,0h-1.279V39.3h1.279Zm5.114,0h-1.278V41.219h1.279v1.918Z" transform="translate(-220.609 -31.63)" fill="#7b7b7b"/>
    <path id="Path_20" data-name="Path 20" d="M256.608,213.8H241.9a.639.639,0,0,1-.639-.639v-1.014l2.105-2.105a.653.653,0,0,1,.9,0l.749.749a1.918,1.918,0,0,0,2.712,0l2.667-2.667a.653.653,0,0,1,.9,0l.749.75a1.922,1.922,0,0,0,2.712,0l2.292-2.292a.639.639,0,0,0-.9-.9l-2.292,2.292a.639.639,0,0,1-.9,0l-.749-.749a1.964,1.964,0,0,0-2.712,0l-2.667,2.667a.639.639,0,0,1-.9,0l-.749-.749a1.964,1.964,0,0,0-2.712,0l-1.2,1.2v-4.849a.639.639,0,1,0-1.278,0v7.671a1.918,1.918,0,0,0,1.918,1.918h14.7a.639.639,0,1,0,0-1.279Z" transform="translate(-220.609 -189.512)" fill="#7b7b7b"/>
    <path id="Path_21" data-name="Path 21" d="M40.834,29.749V3.6A3.439,3.439,0,0,0,37.515.053H4.323A3.439,3.439,0,0,0,1,3.6V29.749a3.439,3.439,0,0,0,3.319,3.545H14.945v1.279H12.289A2.608,2.608,0,0,0,9.634,37.13v.639a.652.652,0,0,0,.664.639H31.541a.652.652,0,0,0,.664-.639V37.13a2.608,2.608,0,0,0-2.655-2.557H26.894V33.295H37.515A3.439,3.439,0,0,0,40.834,29.749Zm-11.285,6.1a1.3,1.3,0,0,1,1.328,1.279H10.962a1.3,1.3,0,0,1,1.328-1.279ZM16.272,34.573V33.295h9.294v1.279Zm21.243-2.557H4.323a2.143,2.143,0,0,1-1.991-2.267V28.181H39.507v1.569A2.143,2.143,0,0,1,37.515,32.016ZM39.506,3.6V26.9H2.332V3.6A2.142,2.142,0,0,1,4.323,1.331H37.515A2.142,2.142,0,0,1,39.506,3.6Z" transform="translate(-1 -0.053)" fill="#7b7b7b"/>
  </g>
</svg>
