<svg xmlns="http://www.w3.org/2000/svg" width="15.204" height="15.328" viewBox="0 0 15.204 15.328">
  <g id="edit_2_" data-name="edit (2)" transform="translate(0 0.002)">
    <path id="Path_41" data-name="Path 41" d="M12.082,99.3H1.926A1.928,1.928,0,0,1,0,97.371V87.215a1.928,1.928,0,0,1,1.926-1.926H7.88a.525.525,0,1,1,0,1.051H1.926a.877.877,0,0,0-.876.876V97.371a.877.877,0,0,0,.876.876H12.082a.877.877,0,0,0,.876-.876V91.418a.525.525,0,1,1,1.051,0v5.953A1.928,1.928,0,0,1,12.082,99.3Zm0,0" transform="translate(0 -83.971)" fill="#fff"/>
    <path id="Path_42" data-name="Path 42" d="M171.67,11.188a.525.525,0,0,1-.515-.628l.5-2.477a.524.524,0,0,1,.144-.268L179.049.562a1.926,1.926,0,1,1,2.723,2.723l-7.253,7.254a.522.522,0,0,1-.268.144l-2.476.5a.518.518,0,0,1-.1.011Zm2.477-1.02h0Zm-1.5-1.722-.309,1.548,1.547-.31,7.141-7.141A.876.876,0,1,0,179.791,1.3Zm0,0" transform="translate(-167.133)" fill="#fff"/>
    <path id="Path_43" data-name="Path 43" d="M379.514,45.642a.521.521,0,0,1-.371-.154l-1.981-1.981a.525.525,0,1,1,.743-.743l1.981,1.981a.526.526,0,0,1-.372.9Zm0,0" transform="translate(-366.236 -41.212)" fill="#fff"/>
  </g>
</svg>
