<svg xmlns="http://www.w3.org/2000/svg" width="40.967" height="41" viewBox="0 0 40.967 41">
  <g id="knowledge" transform="translate(-0.203)">
    <path id="Path_22" data-name="Path 22" d="M41.17,278.031v-3.608H37.322v-2.405H36.039v-2h1.283v-3.608H27.73v1.2H36.12v1.2H11.238v1.2h23.6v2H8.661a1,1,0,1,1,0-2h1.374v-1.2H8.661a2.2,2.2,0,0,0,0,4.409H36.12v1.2H15.4v1.2H39.968v1.2H6.015a3.407,3.407,0,0,0,0,6.815H34.339v-1.2H6.015a2.2,2.2,0,0,1,0-4.409h32.67v2H12.028v1.2H38.685v1.2H35.541v1.2h4.427v1.2H6.015a4.61,4.61,0,0,1,0-9.22h8.177v-1.2H8.661a3.407,3.407,0,1,1,0-6.815H26.528v-1.2H8.661a4.607,4.607,0,0,0-3.081,8.035,5.812,5.812,0,0,0,.436,11.607H41.17V282.44H39.888v-4.409Z" transform="translate(0 -245.048)" fill="#7b7b7b"/>
    <path id="Path_23" data-name="Path 23" d="M117.7,436.406h1.2v1.2h-1.2Z" transform="translate(-108.08 -401.419)" fill="#7b7b7b"/>
    <path id="Path_24" data-name="Path 24" d="M58.9,17.872l.268.179c.1.07,2.632,1.7,9.152,1.7s9.048-1.635,9.152-1.7l.268-.179V7.748l3.608-1.2v5.677a2.208,2.208,0,0,0-1.6,2.121V17.35h4.409V14.343a2.208,2.208,0,0,0-1.6-2.121V6.145l2.1-.7-6.315-2.1-.38,1.141,2.892.964L68.318,9.621,55.789,5.444,68.318,1.268l8.5,2.832.38-1.141L68.318,0,51.986,5.444l6.912,2.3Zm24.051-3.529v1.8h-2v-1.8a1,1,0,1,1,2,0ZM60.1,8.149l8.218,2.739,8.218-2.739V12.86H75.053v1.2h1.483v1.2H73.93v1.2h2.606v.725c-.775.377-3.268,1.36-8.218,1.36s-7.446-.984-8.218-1.359Z" transform="translate(-47.632)" fill="#7b7b7b"/>
    <path id="Path_25" data-name="Path 25" d="M87.7,436.406h1.2v1.2H87.7Z" transform="translate(-80.485 -401.419)" fill="#7b7b7b"/>
    <path id="Path_26" data-name="Path 26" d="M295.7,190.406h1.2v1.2h-1.2Z" transform="translate(-271.809 -175.141)" fill="#7b7b7b"/>
  </g>
</svg>
