<svg id="graduation-cap" xmlns="http://www.w3.org/2000/svg" width="24.906" height="20.43" viewBox="0 0 24.906 20.43">
  <path id="Path_192" data-name="Path 192" d="M23.446,60.654V51.205l1.123-.365a.486.486,0,0,0,0-.925L12.6,46.023a.487.487,0,0,0-.3,0L.336,49.915a.486.486,0,0,0,0,.925l4.82,1.568v3.807c0,.986.813,1.878,2.289,2.511a13.1,13.1,0,0,0,5.007.894,13.1,13.1,0,0,0,5.007-.894c1.476-.633,2.289-1.524,2.289-2.511V52.407l2.724-.886v9.132a1.949,1.949,0,0,0-1.459,1.884V63.6a2.85,2.85,0,0,1-.83,2,.486.486,0,0,0,.344.83H21.5a3.409,3.409,0,0,0,3.405-3.405v-.486A1.949,1.949,0,0,0,23.446,60.654ZM12.453,47l10.393,3.38-10.393,3.38L2.059,50.377Zm6.324,9.217c0,1.15-2.6,2.432-6.324,2.432s-6.324-1.282-6.324-2.432V52.724L12.3,54.731a.487.487,0,0,0,.3,0l6.173-2.008Z" transform="translate(0 -45.999)" fill="#fff"/>
</svg>
