<svg xmlns="http://www.w3.org/2000/svg" width="16.453" height="16.454" viewBox="0 0 16.453 16.454">
  <path id="home_1_" data-name="home (1)" d="M16.511,7.156h0L9.8.443a1.515,1.515,0,0,0-2.142,0L.947,7.152.94,7.158A1.514,1.514,0,0,0,1.948,9.739l.047,0h.267v4.939a1.775,1.775,0,0,0,1.773,1.773H6.661a.482.482,0,0,0,.482-.482V12.1a.81.81,0,0,1,.809-.809H9.5a.81.81,0,0,1,.809.809v3.873a.482.482,0,0,0,.482.482h2.626a1.775,1.775,0,0,0,1.773-1.773V9.742h.248a1.515,1.515,0,0,0,1.072-2.585Zm-.683,1.46a.547.547,0,0,1-.389.161h-.73a.482.482,0,0,0-.482.482v5.421a.81.81,0,0,1-.809.809H11.274V12.1A1.775,1.775,0,0,0,9.5,10.326H7.952A1.775,1.775,0,0,0,6.179,12.1V15.49H4.035a.81.81,0,0,1-.809-.809V9.259a.482.482,0,0,0-.482-.482H2a.55.55,0,0,1-.379-.939h0L8.337,1.125a.55.55,0,0,1,.779,0l6.71,6.71,0,0a.552.552,0,0,1,0,.778Zm0,0" transform="translate(-0.5 0.001)" fill="#fff"/>
</svg>
