<svg xmlns="http://www.w3.org/2000/svg" width="33.179" height="36.265" viewBox="0 0 33.179 36.265">
  <path id="user_1_" data-name="user (1)" d="M36.583,25.923l-6.89-2.887a1.587,1.587,0,0,1-1.054-1.429V19.563c.165-.169.339-.362.519-.575a13.158,13.158,0,0,0,2.131-3.505A2.415,2.415,0,0,0,32.966,13.3V10.88a2.2,2.2,0,0,0-.721-1.587V6.078a4.813,4.813,0,0,0-1.509-3.944C29.254.718,26.85,0,23.589,0s-5.665.718-7.146,2.134a4.814,4.814,0,0,0-1.509,3.944V9.293a2.2,2.2,0,0,0-.721,1.587V13.3a2.283,2.283,0,0,0,1.08,1.879,12.045,12.045,0,0,0,2.527,4.374v2a1.581,1.581,0,0,1-.993,1.4l-6.435,2.941A5.394,5.394,0,0,0,7,30.682v1.957c0,2.869,10.852,3.627,16.589,3.627s16.589-.758,16.589-3.627V30.8A5.414,5.414,0,0,0,36.583,25.923Zm2.154,6.716c0,.82-5.346,2.418-15.147,2.418s-15.147-1.6-15.147-2.418V30.682a4.2,4.2,0,0,1,2.639-3.726l6.435-2.941a2.778,2.778,0,0,0,1.745-2.464V19.122l-.168-.168a10.89,10.89,0,0,1-2.46-4.27l-.066-.239-.246-.133a1.175,1.175,0,0,1-.667-1.014V10.88a1.12,1.12,0,0,1,.483-.892l.238-.18V6.044l-.006-.079A3.717,3.717,0,0,1,17.528,2.93c1.2-1.142,3.235-1.721,6.062-1.721s4.852.575,6.049,1.709a3.77,3.77,0,0,1,1.171,3.047L30.8,9.809l.238.18a1.118,1.118,0,0,1,.483.891V13.3A1.251,1.251,0,0,1,30.5,14.445l-.359.092-.115.3a11.979,11.979,0,0,1-2.044,3.453,8.325,8.325,0,0,1-.6.652l-.18.172v2.493a2.786,2.786,0,0,0,1.851,2.51L35.937,27a4.213,4.213,0,0,1,2.8,3.8Z" transform="translate(-7)" fill="#7b7b7b"/>
</svg>
