<svg xmlns="http://www.w3.org/2000/svg" width="47.799" height="41.183" viewBox="0 0 47.799 41.183">
  <g id="teacher" transform="translate(0 -35.431)">
    <path id="Path_185" data-name="Path 185" d="M398.455,297.352h-4.481a.7.7,0,1,0,0,1.4h4.481a.7.7,0,1,0,0-1.4Z" transform="translate(-356.559 -237.469)" fill="#7b7b7b"/>
    <path id="Path_186" data-name="Path 186" d="M398.455,328.181h-4.481a.7.7,0,0,0,0,1.4h4.481a.7.7,0,0,0,0-1.4Z" transform="translate(-356.559 -265.42)" fill="#7b7b7b"/>
    <path id="Path_187" data-name="Path 187" d="M398.455,266.523h-4.481a.7.7,0,1,0,0,1.4h4.481a.7.7,0,1,0,0-1.4Z" transform="translate(-356.559 -209.518)" fill="#7b7b7b"/>
    <path id="Path_188" data-name="Path 188" d="M274.11,256.769a1.134,1.134,0,0,0-1.133,1.133v.663h-1.643A1.134,1.134,0,0,0,270.2,259.7v.6h-1.647a1.134,1.134,0,0,0-1.132,1.132v3.279a1.04,1.04,0,0,0,1.039,1.039h7.657a1.04,1.04,0,0,0,1.039-1.039V257.9a1.134,1.134,0,0,0-1.132-1.133Zm-3.908,7.577h-1.379V261.7H270.2Zm2.775,0H271.6v-4.381h1.375Zm2.78,0h-1.375c0-4.529,0-5.968,0-6.177h1.379v6.177Z" transform="translate(-242.456 -200.675)" fill="#7b7b7b"/>
    <path id="Path_189" data-name="Path 189" d="M1.722,76.614h11.83a.7.7,0,1,0,0-1.4H6.358V65.808a.7.7,0,0,0-1.4,0v9.406H1.722a.322.322,0,0,1-.322-.322v-9.91a4.556,4.556,0,0,1,2.627-4.106L8.581,59.1l2.71,2.71a5.508,5.508,0,0,0,7.792,0l2.671-2.672V68.4a1.8,1.8,0,0,0,1.8,1.8h.464v5.015H16.82a.7.7,0,1,0,0,1.4H28.65a1.724,1.724,0,0,0,1.722-1.722V70.2h2.906v2.147a2.192,2.192,0,1,0,1.4,0V70.2h9.728a1.8,1.8,0,0,0,1.8-1.8V62.217a.7.7,0,1,0-1.4,0V68.4a.4.4,0,0,1-.4.4H23.55a.4.4,0,0,1-.4-.4V52.032H44.8V58.95a.7.7,0,1,0,1.4,0V52.032h0a1.6,1.6,0,0,0,1.6-1.6v-1.35a1.6,1.6,0,0,0-1.6-1.6H24.132a3.035,3.035,0,0,0-1.189-1.89,1.756,1.756,0,0,0,.105-.6V40.485a2.47,2.47,0,0,0-2.607-2.467.348.348,0,0,1-.386-.257,2.689,2.689,0,0,0-3.011-2.33H11.1A4.654,4.654,0,0,0,6.452,40.08v4.334a2.354,2.354,0,0,0,.608,1.581,2.875,2.875,0,0,0,1.813,4.934,6.364,6.364,0,0,0,2.474,4.2v1.388l-7.836,3.06-.012,0a5.92,5.92,0,0,0-3.5,5.4v9.911a1.724,1.724,0,0,0,1.722,1.722Zm32.256-2.983a.791.791,0,1,1-.791.791A.792.792,0,0,1,33.978,73.631ZM25.415,70.2h3.557v4.693a.322.322,0,0,1-.322.322H25.415V70.2ZM13.358,61.592l1.37-1.379,0,0a1.213,1.213,0,0,0,.156-.2h.587a1.194,1.194,0,0,0,.159.2L17.006,61.6a4.105,4.105,0,0,1-3.648,0Zm-.611-4.911c0-.018,0-.036,0-.054v-.719a6.631,6.631,0,0,0,4.872.011v.713c0,.013,0,.027,0,.04L15.67,58.61h-.979Zm5.4,4.079L16.83,59.432l1.624-1.612,1.9.736Zm3.6-3.164-2.732-1.058V55.132a6.316,6.316,0,0,0,2.254-3.174,1.588,1.588,0,0,0,.479.074h0Zm24.45-8.7a.2.2,0,0,1,.195.195v1.35a.2.2,0,0,1-.195.195H21.753a.2.2,0,0,1-.195-.195v-1.35a.2.2,0,0,1,.195-.195ZM21.967,46.638a1.619,1.619,0,0,1,.719.855h-.933a1.947,1.947,0,0,0-.195.012v-.75A1.89,1.89,0,0,0,21.967,46.638ZM8.814,49.5a1.531,1.531,0,0,1-1.227-1.447,1.622,1.622,0,0,1,.774-1.321,2.362,2.362,0,0,0,.338.041l.115,0V49.5Zm0-4.124a.966.966,0,0,1-.963-.963V40.08A3.252,3.252,0,0,1,11.1,36.831h5.942c1.3,0,1.509.543,1.637,1.2a1.75,1.75,0,0,0,1.868,1.384,1.072,1.072,0,0,1,1.1,1.071v4.522a.376.376,0,0,1-.369.369,1.345,1.345,0,0,1-1.339-1.339.806.806,0,0,0-1.515-.381,3.245,3.245,0,0,1-2.866,1.72H8.815Zm1.4,4.71v-3.31h5.345a4.646,4.646,0,0,0,3.329-1.4,2.756,2.756,0,0,0,1.27,1.162v3.551a4.973,4.973,0,0,1-9.944,0ZM11.891,57.8l1.639,1.627-1.313,1.322L10,58.541Z" transform="translate(0 0)" fill="#7b7b7b"/>
  </g>
</svg>
