<svg xmlns="http://www.w3.org/2000/svg" width="14.682" height="13.793" viewBox="0 0 14.682 13.793">
  <g id="XMLID_10_" transform="translate(0 -10)">
    <path id="XMLID_11_" d="M81.138,14.254l1.975-1.975v8.177a.667.667,0,1,0,1.335,0V12.279l1.975,1.975a.667.667,0,1,0,.944-.944L84.253,10.2q-.023-.023-.049-.044l-.023-.017-.03-.022-.028-.017-.028-.016-.029-.014-.03-.014-.029-.011-.033-.011-.029-.007-.034-.008-.034-.005-.031,0-.062,0h-.008l-.062,0-.03,0-.034.005-.033.008-.03.008-.032.011-.03.011-.029.013-.031.015-.026.016-.03.018-.028.021-.024.018c-.016.013-.032.027-.047.042l0,0L80.194,13.31a.667.667,0,0,0,.944.944Z" transform="translate(-76.44)" fill="#fff"/>
    <path id="XMLID_12_" d="M14.015,160a.667.667,0,0,0-.667.667v5.117H1.335v-5.117a.667.667,0,0,0-1.335,0v5.784a.667.667,0,0,0,.667.667H14.015a.667.667,0,0,0,.667-.667v-5.784A.667.667,0,0,0,14.015,160Z" transform="translate(0 -143.326)" fill="#fff"/>
  </g>
</svg>
